<?xml version="1.0" encoding="UTF-8" standalone="no"?>
<!-- Created with Inkscape (http://www.inkscape.org/) -->

<svg
   xmlns:dc="http://purl.org/dc/elements/1.1/"
   xmlns:cc="http://creativecommons.org/ns#"
   xmlns:rdf="http://www.w3.org/1999/02/22-rdf-syntax-ns#"
   xmlns:svg="http://www.w3.org/2000/svg"
   xmlns="http://www.w3.org/2000/svg"
   xmlns:sodipodi="http://sodipodi.sourceforge.net/DTD/sodipodi-0.dtd"
   xmlns:inkscape="http://www.inkscape.org/namespaces/inkscape"
   width="370.40625"
   height="192.11327"
   id="svg2"
   version="1.1"
   inkscape:version="0.48.5 r10040"
   sodipodi:docname="di.pdf">
  <defs
     id="defs4">
    <clipPath
       id="clipEmfPath1"
       clipPathUnits="userSpaceOnUse">
      <rect
         id="rect2990"
         height="128.87672"
         width="236.65416"
         y="0"
         x="0" />
    </clipPath>
  </defs>
  <sodipodi:namedview
     id="base"
     pagecolor="#ffffff"
     bordercolor="#666666"
     borderopacity="1.0"
     inkscape:pageopacity="0.0"
     inkscape:pageshadow="2"
     inkscape:zoom="2.1230124"
     inkscape:cx="315.61893"
     inkscape:cy="95.158225"
     inkscape:document-units="px"
     inkscape:current-layer="layer1"
     showgrid="false"
     fit-margin-top="0"
     fit-margin-left="0"
     fit-margin-right="0"
     fit-margin-bottom="0"
     inkscape:window-width="2560"
     inkscape:window-height="1417"
     inkscape:window-x="-8"
     inkscape:window-y="-8"
     inkscape:window-maximized="1" />
  <metadata
     id="metadata7">
    <rdf:RDF>
      <cc:Work
         rdf:about="">
        <dc:format>image/svg+xml</dc:format>
        <dc:type
           rdf:resource="http://purl.org/dc/dcmitype/StillImage" />
        <dc:title></dc:title>
      </cc:Work>
    </rdf:RDF>
  </metadata>
  <g
     inkscape:label="Layer 1"
     inkscape:groupmode="layer"
     id="layer1"
     transform="translate(-173.96875,-77.548877)">
    <g
       id="g3096">
      <path
         id="path2994"
         d="m 185.6416,161.30801 91.00157,0 c 6.29147,0 11.40329,-5.11181 11.40329,-11.40328 l 0,-39.82724 c 0,-6.29146 -5.11182,-11.347106 -11.40329,-11.347106 l -91.00157,0 c -6.29147,0 -11.40329,5.055646 -11.40329,11.347106 l 0,39.82724 c 0,6.29147 5.11182,11.40328 11.40329,11.40328 z"
         style="fill:none;stroke:#4f88bb;stroke-width:0.57025099px;stroke-linecap:square;stroke-linejoin:miter;stroke-miterlimit:4;stroke-opacity:1;stroke-dasharray:none"
         inkscape:connector-curvature="0" />
      <text
         id="text2996"
         style="font-size:21.57074547px;font-style:normal;font-weight:normal;text-align:start;text-anchor:start;fill:#4f88bb;font-family:Calibri"
         y="136.90372"
         x="202.41457"
         xml:space="preserve">Obiekt</text>
      <path
         id="path2998"
         d="m 416.06658,161.30801 113.75197,0 c 7.86434,0 14.26816,-6.34764 14.26816,-14.21197 l 0,-34.15368 c 0,-7.86433 -6.40382,-14.211976 -14.26816,-14.211976 l -113.75197,0 c -7.86433,0 -14.21197,6.347646 -14.21197,14.211976 l 0,34.15368 c 0,7.86433 6.34764,14.21197 14.21197,14.21197 z"
         style="fill:none;stroke:#4f88bb;stroke-width:0.57025099px;stroke-linecap:square;stroke-linejoin:miter;stroke-miterlimit:4;stroke-opacity:1;stroke-dasharray:none"
         inkscape:connector-curvature="0" />
      <text
         id="text3000"
         style="font-size:21.57074547px;font-style:normal;font-weight:normal;text-align:start;text-anchor:start;fill:#4f88bb;font-family:Calibri"
         y="136.90372"
         x="430.91788"
         xml:space="preserve">Zależność</text>
      <path
         id="path3002"
         d="m 288.04646,130.0192 105.83146,0"
         style="fill:none;stroke:#41719c;stroke-width:1.5325495px;stroke-linecap:round;stroke-linejoin:round;stroke-opacity:1;stroke-dasharray:none"
         inkscape:connector-curvature="0" />
      <path
         id="path3004"
         d="m 392.69828,125.46912 9.15633,4.55008 -9.15633,4.55008 0,-9.10016 z"
         style="fill:#41719c;fill-opacity:1;fill-rule:evenodd;stroke:none"
         inkscape:connector-curvature="0" />
      <text
         id="text3018"
         style="font-size:17.07683945px;font-style:normal;font-weight:normal;text-align:start;text-anchor:start;fill:#5b9bd5;font-family:Calibri"
         y="89.239174"
         x="265.33734"
         xml:space="preserve">Aktywne nabycie zależności</text>
    </g>
    <g
       id="g3087"
       transform="translate(1.671066e-6,0)">
      <path
         transform="matrix(1.5761148,0,0,1.5761148,172.89014,67.722439)"
         id="path3006"
         d="m 8.0904359,127.95007 57.7379121,0 c 3.991757,0 7.23506,-3.24331 7.23506,-7.19942 l 0,-25.26925 c 0,-3.991757 -3.243303,-7.23506 -7.23506,-7.23506 l -57.7379121,0 c -3.9917569,0 -7.23505942,3.243303 -7.23505942,7.23506 l 0,25.26925 c 0,3.95611 3.24330252,7.19942 7.23505942,7.19942 z"
         clip-path="url(#clipEmfPath1)"
         style="fill:none;stroke:#4f88bb;stroke-width:0.36180803px;stroke-linecap:square;stroke-linejoin:miter;stroke-miterlimit:4;stroke-opacity:1;stroke-dasharray:none"
         inkscape:connector-curvature="0" />
      <text
         id="text3008"
         style="font-size:21.57074547px;font-style:normal;font-weight:normal;text-align:start;text-anchor:start;fill:#4f88bb;font-family:Calibri"
         y="244.99817"
         x="202.41457"
         xml:space="preserve">Obiekt</text>
      <path
         transform="matrix(1.5761148,0,0,1.5761148,172.89014,67.722439)"
         id="path3010"
         d="m 154.28853,127.95007 72.17239,0 c 4.9897,0 9.05274,-4.0274 9.05274,-9.0171 l 0,-21.669536 c 0,-4.989696 -4.06304,-9.017094 -9.05274,-9.017094 l -72.17239,0 c -4.98969,0 -9.01709,4.027398 -9.01709,9.017094 l 0,21.669536 c 0,4.9897 4.0274,9.0171 9.01709,9.0171 z"
         clip-path="url(#clipEmfPath1)"
         style="fill:none;stroke:#4f88bb;stroke-width:0.36180803px;stroke-linecap:square;stroke-linejoin:miter;stroke-miterlimit:4;stroke-opacity:1;stroke-dasharray:none"
         inkscape:connector-curvature="0" />
      <text
         id="text3012"
         style="font-size:21.57074547px;font-style:normal;font-weight:normal;text-align:start;text-anchor:start;fill:#4f88bb;font-family:Calibri"
         y="244.99817"
         x="430.91788"
         xml:space="preserve">Zależność</text>
      <path
         id="path3014"
         d="m 401.85461,238.09761 -105.83147,0"
         style="fill:none;stroke:#41719c;stroke-width:1.5325495px;stroke-linecap:round;stroke-linejoin:round;stroke-opacity:1;stroke-dasharray:none"
         inkscape:connector-curvature="0" />
      <path
         id="path3016"
         d="m 297.14662,242.6477 -9.10016,-4.55009 9.10016,-4.55007 0,9.10016 z"
         style="fill:#41719c;fill-opacity:1;fill-rule:evenodd;stroke:none"
         inkscape:connector-curvature="0" />
      <text
         id="text3020"
         style="font-size:17.07683945px;font-style:normal;font-weight:normal;text-align:start;text-anchor:start;fill:#5b9bd5;font-family:Calibri"
         y="195.91548"
         x="273.5126"
         xml:space="preserve">Wstrzykiwanie zależności</text>
    </g>
  </g>
</svg>
