<?xml version="1.0" encoding="UTF-8" standalone="no"?><!DOCTYPE svg PUBLIC "-//W3C//DTD SVG 1.1//EN" "http://www.w3.org/Graphics/SVG/1.1/DTD/svg11.dtd"><svg width="100%" height="100%" viewBox="0 0 2383 1249" version="1.1" xmlns="http://www.w3.org/2000/svg" xmlns:xlink="http://www.w3.org/1999/xlink" xml:space="preserve" xmlns:serif="http://www.serif.com/" style="fill-rule:evenodd;clip-rule:evenodd;stroke-miterlimit:8;"><rect x="1888.88" y="1.331" width="491.242" height="299.575" style="fill:#fff;"/><rect x="0" y="0" width="2382.79" height="1248.9" style="fill:none;"/><clipPath id="_clip1"><rect x="0" y="0" width="2382.79" height="1248.9"/></clipPath><g clip-path="url(#_clip1)"><rect x="1888.88" y="1.331" width="491.242" height="299.575" style="fill:none;stroke:#5b9bd5;stroke-width:4px;"/></g><rect x="0" y="0" width="2382.79" height="1248.9" style="fill:none;"/><g transform="matrix(1.3349,0,0,1.33145,2037.98,189.764)"><text x="0px" y="0px" style="font-family:'FiraSans-Regular', 'Fira Sans', sans-serif;font-size:84px;fill:#0070c0;">S</text><text x="46px" y="0px" style="font-family:'FiraSans-Regular', 'Fira Sans', sans-serif;font-size:84px;fill:#0070c0;">U</text><text x="102px" y="0px" style="font-family:'FiraSans-Regular', 'Fira Sans', sans-serif;font-size:84px;fill:#0070c0;">T</text></g><rect x="1.335" y="1.331" width="491.242" height="299.575" style="fill:#fff;"/><rect x="0" y="0" width="2382.79" height="1248.9" style="fill:none;"/><clipPath id="_clip2"><rect x="0" y="0" width="2382.79" height="1248.9"/></clipPath><g clip-path="url(#_clip2)"><rect x="1.335" y="1.331" width="491.242" height="299.575" style="fill:none;stroke:#5b9bd5;stroke-width:4px;"/></g><rect x="0" y="0" width="2382.79" height="1248.9" style="fill:none;"/><g transform="matrix(1.3349,0,0,1.33145,140.904,189.764)"><text x="0px" y="0px" style="font-family:'FiraSans-Regular', 'Fira Sans', sans-serif;font-size:84px;fill:#0070c0;">T</text><text x="38.38px" y="0px" style="font-family:'FiraSans-Regular', 'Fira Sans', sans-serif;font-size:84px;fill:#0070c0;">e</text><text x="84.38px" y="0px" style="font-family:'FiraSans-Regular', 'Fira Sans', sans-serif;font-size:84px;fill:#0070c0;">s</text><text x="123.38px" y="0px" style="font-family:'FiraSans-Regular', 'Fira Sans', sans-serif;font-size:84px;fill:#0070c0;">t</text></g><path d="M492.577,149.788l1392.46,0l0,3.994l-1392.46,0l0,-3.994Zm1369.35,-13.648l27.032,15.645l-27.032,15.728c-0.917,0.582 -2.169,0.249 -2.67,-0.666c-0.584,-0.999 -0.25,-2.247 0.668,-2.746l24.028,-13.98l0,3.411l-24.028,-13.98c-0.918,-0.499 -1.252,-1.747 -0.668,-2.746c0.501,-0.915 1.753,-1.248 2.67,-0.666Z" style="fill:#4472c4;fill-rule:nonzero;stroke:#4472c4;stroke-width:0.08px;stroke-linejoin:round;stroke-miterlimit:1.41421;"/><g transform="matrix(1.3349,0,0,1.33145,1054.98,133.732)"><text x="0px" y="0px" style="font-family:'FiraSans-Regular', 'Fira Sans', sans-serif;font-size:54px;fill:#0070c0;">E</text><text x="29px" y="0px" style="font-family:'FiraSans-Regular', 'Fira Sans', sans-serif;font-size:54px;fill:#0070c0;">x</text><text x="54.514px" y="0px" style="font-family:'FiraSans-Regular', 'Fira Sans', sans-serif;font-size:54px;fill:#0070c0;">e</text><text x="83.514px" y="0px" style="font-family:'FiraSans-Regular', 'Fira Sans', sans-serif;font-size:54px;fill:#0070c0;">r</text><text x="102.894px" y="0px" style="font-family:'FiraSans-Regular', 'Fira Sans', sans-serif;font-size:54px;fill:#0070c0;">c</text><text x="128.894px" y="0px" style="font-family:'FiraSans-Regular', 'Fira Sans', sans-serif;font-size:54px;fill:#0070c0;">i</text><text x="143.894px" y="0px" style="font-family:'FiraSans-Regular', 'Fira Sans', sans-serif;font-size:54px;fill:#0070c0;">s</text><text x="168.894px" y="0px" style="font-family:'FiraSans-Regular', 'Fira Sans', sans-serif;font-size:54px;fill:#0070c0;">e</text></g><rect x="1643.26" y="473.995" width="491.242" height="299.575" style="fill:#fff;"/><rect x="1643.26" y="473.995" width="491.242" height="299.575" style="fill:none;stroke:#5b9bd5;stroke-width:4px;"/><g transform="matrix(1.3349,0,0,1.33145,1792.28,661.996)"><text x="0px" y="0px" style="font-family:'FiraSans-Regular', 'Fira Sans', sans-serif;font-size:84px;fill:#0070c0;">S</text><text x="46px" y="0px" style="font-family:'FiraSans-Regular', 'Fira Sans', sans-serif;font-size:84px;fill:#0070c0;">U</text><text x="102px" y="0px" style="font-family:'FiraSans-Regular', 'Fira Sans', sans-serif;font-size:84px;fill:#0070c0;">T</text></g><rect x="1.335" y="473.995" width="491.242" height="299.575" style="fill:#fff;"/><rect x="0" y="0" width="2382.79" height="1248.9" style="fill:none;"/><clipPath id="_clip3"><rect x="0" y="0" width="2382.79" height="1248.9"/></clipPath><g clip-path="url(#_clip3)"><rect x="1.335" y="473.995" width="491.242" height="299.575" style="fill:none;stroke:#5b9bd5;stroke-width:4px;"/></g><rect x="0" y="0" width="2382.79" height="1248.9" style="fill:none;"/><g transform="matrix(1.3349,0,0,1.33145,140.904,661.997)"><text x="0px" y="0px" style="font-family:'FiraSans-Regular', 'Fira Sans', sans-serif;font-size:84px;fill:#0070c0;">T</text><text x="38.38px" y="0px" style="font-family:'FiraSans-Regular', 'Fira Sans', sans-serif;font-size:84px;fill:#0070c0;">e</text><text x="84.38px" y="0px" style="font-family:'FiraSans-Regular', 'Fira Sans', sans-serif;font-size:84px;fill:#0070c0;">s</text><text x="123.38px" y="0px" style="font-family:'FiraSans-Regular', 'Fira Sans', sans-serif;font-size:84px;fill:#0070c0;">t</text></g><path d="M492.577,626.446l1146.76,0l0,-3.995l-1146.76,0l0,3.995Zm1123.73,13.73l26.949,-15.728l-26.949,-15.644c-1.001,-0.583 -2.252,-0.25 -2.753,0.666c-0.584,0.998 -0.25,2.246 0.668,2.746l24.028,13.98l0,-3.412l-24.028,13.98c-0.918,0.5 -1.252,1.748 -0.668,2.746c0.501,0.916 1.752,1.249 2.753,0.666Z" style="fill:#4472c4;fill-rule:nonzero;stroke:#4472c4;stroke-width:0.08px;stroke-linejoin:round;stroke-miterlimit:1.41421;"/><g transform="matrix(1.3349,0,0,1.33145,932.591,605.963)"><text x="0px" y="0px" style="font-family:'FiraSans-Regular', 'Fira Sans', sans-serif;font-size:54px;fill:#0070c0;">E</text><text x="29px" y="0px" style="font-family:'FiraSans-Regular', 'Fira Sans', sans-serif;font-size:54px;fill:#0070c0;">x</text><text x="54.514px" y="0px" style="font-family:'FiraSans-Regular', 'Fira Sans', sans-serif;font-size:54px;fill:#0070c0;">e</text><text x="83.514px" y="0px" style="font-family:'FiraSans-Regular', 'Fira Sans', sans-serif;font-size:54px;fill:#0070c0;">r</text><text x="102.894px" y="0px" style="font-family:'FiraSans-Regular', 'Fira Sans', sans-serif;font-size:54px;fill:#0070c0;">c</text><text x="128.894px" y="0px" style="font-family:'FiraSans-Regular', 'Fira Sans', sans-serif;font-size:54px;fill:#0070c0;">i</text><text x="143.894px" y="0px" style="font-family:'FiraSans-Regular', 'Fira Sans', sans-serif;font-size:54px;fill:#0070c0;">s</text><text x="168.894px" y="0px" style="font-family:'FiraSans-Regular', 'Fira Sans', sans-serif;font-size:54px;fill:#0070c0;">e</text></g><rect x="1354.92" y="946.658" width="491.242" height="299.575" style="fill:#fff;"/><rect x="0" y="0" width="2382.79" height="1248.9" style="fill:none;"/><clipPath id="_clip4"><rect x="0" y="0" width="2382.79" height="1248.9"/></clipPath><g clip-path="url(#_clip4)"><rect x="1354.92" y="946.658" width="491.242" height="299.575" style="fill:none;stroke:#5b9bd5;stroke-width:4px;"/></g><rect x="0" y="0" width="2382.79" height="1248.9" style="fill:none;"/><g transform="matrix(1.3349,0,0,1.33145,1504.39,1134.23)"><text x="0px" y="0px" style="font-family:'FiraSans-Regular', 'Fira Sans', sans-serif;font-size:84px;fill:#0070c0;">S</text><text x="46px" y="0px" style="font-family:'FiraSans-Regular', 'Fira Sans', sans-serif;font-size:84px;fill:#0070c0;">U</text><text x="102px" y="0px" style="font-family:'FiraSans-Regular', 'Fira Sans', sans-serif;font-size:84px;fill:#0070c0;">T</text></g><rect x="1.335" y="946.658" width="491.242" height="299.575" style="fill:#fff;"/><rect x="0" y="0" width="2382.79" height="1248.9" style="fill:none;"/><clipPath id="_clip5"><rect x="0" y="0" width="2382.79" height="1248.9"/></clipPath><g clip-path="url(#_clip5)"><rect x="1.335" y="946.658" width="491.242" height="299.575" style="fill:none;stroke:#5b9bd5;stroke-width:4px;"/></g><rect x="0" y="0" width="2382.79" height="1248.9" style="fill:none;"/><g transform="matrix(1.3349,0,0,1.33145,140.904,1134.23)"><text x="0px" y="0px" style="font-family:'FiraSans-Regular', 'Fira Sans', sans-serif;font-size:84px;fill:#0070c0;">T</text><text x="38.38px" y="0px" style="font-family:'FiraSans-Regular', 'Fira Sans', sans-serif;font-size:84px;fill:#0070c0;">e</text><text x="84.38px" y="0px" style="font-family:'FiraSans-Regular', 'Fira Sans', sans-serif;font-size:84px;fill:#0070c0;">s</text><text x="123.38px" y="0px" style="font-family:'FiraSans-Regular', 'Fira Sans', sans-serif;font-size:84px;fill:#0070c0;">t</text></g><path d="M492.577,1097.78l858.838,0l0,-3.995l-858.838,0l0,3.995Zm835.811,13.73l26.948,-15.728l-26.948,-15.644c-1.001,-0.583 -2.169,-0.25 -2.753,0.666c-0.584,0.998 -0.25,2.246 0.751,2.746l24.028,13.98l0,-3.412l-24.028,13.98c-1.001,0.5 -1.335,1.748 -0.751,2.746c0.584,0.916 1.752,1.249 2.753,0.666Z" style="fill:#4472c4;fill-rule:nonzero;stroke:#4472c4;stroke-width:0.08px;stroke-linejoin:round;stroke-miterlimit:1.41421;"/><g transform="matrix(1.3349,0,0,1.33145,788.184,1079.63)"><text x="0px" y="0px" style="font-family:'FiraSans-Regular', 'Fira Sans', sans-serif;font-size:54px;fill:#0070c0;">E</text><text x="29px" y="0px" style="font-family:'FiraSans-Regular', 'Fira Sans', sans-serif;font-size:54px;fill:#0070c0;">x</text><text x="54.514px" y="0px" style="font-family:'FiraSans-Regular', 'Fira Sans', sans-serif;font-size:54px;fill:#0070c0;">e</text><text x="83.514px" y="0px" style="font-family:'FiraSans-Regular', 'Fira Sans', sans-serif;font-size:54px;fill:#0070c0;">r</text><text x="102.894px" y="0px" style="font-family:'FiraSans-Regular', 'Fira Sans', sans-serif;font-size:54px;fill:#0070c0;">c</text><text x="128.894px" y="0px" style="font-family:'FiraSans-Regular', 'Fira Sans', sans-serif;font-size:54px;fill:#0070c0;">i</text><text x="143.894px" y="0px" style="font-family:'FiraSans-Regular', 'Fira Sans', sans-serif;font-size:54px;fill:#0070c0;">s</text><text x="168.894px" y="0px" style="font-family:'FiraSans-Regular', 'Fira Sans', sans-serif;font-size:54px;fill:#0070c0;">e</text></g><path d="M1602.29,948.988l17.187,-10.318l-3.421,-5.742l-17.187,10.319l3.421,5.741Zm22.86,-13.73l17.187,-10.319l-3.421,-5.658l-17.187,10.235l3.421,5.742Zm22.944,-13.731l17.103,-10.318l-3.421,-5.659l-17.186,10.235l3.504,5.742Zm22.86,-13.73l17.187,-10.236l-3.421,-5.742l-17.187,10.319l3.421,5.659Zm22.86,-13.731l17.187,-10.235l-3.421,-5.742l-17.187,10.319l3.421,5.658Zm22.943,-13.647l17.104,-10.319l-3.421,-5.742l-17.187,10.319l3.504,5.742Zm22.86,-13.731l17.187,-10.318l-3.504,-5.659l-17.103,10.236l3.42,5.741Zm22.861,-13.73l17.186,-10.319l-3.42,-5.659l-17.187,10.236l3.421,5.742Zm22.943,-13.731l17.103,-10.235l-3.42,-5.742l-17.187,10.319l3.504,5.658Zm22.86,-13.647l17.187,-10.319l-3.504,-5.742l-17.104,10.319l3.421,5.742Zm22.86,-13.731l17.187,-10.318l-3.421,-5.659l-17.186,10.236l3.42,5.741Zm22.944,-13.73l17.103,-10.319l-3.421,-5.658l-17.186,10.235l3.504,5.742Zm22.86,-13.731l7.592,-4.493l-3.421,-5.742l-7.592,4.577l3.421,5.658Zm-4.589,18.557l16.102,-29.375l-33.539,0.5c-1.835,0 -3.254,1.498 -3.254,3.328c0,1.831 1.502,3.329 3.337,3.329l27.866,-0.416l-3.003,-4.91l-13.349,24.299c-0.918,1.664 -0.334,3.661 1.335,4.577c1.585,0.832 3.587,0.249 4.505,-1.332Z" style="fill:#4472c4;fill-rule:nonzero;stroke:#4472c4;stroke-width:0.08px;stroke-linejoin:round;stroke-miterlimit:1.41421;"/><path d="M1890.8,476.159l16.436,-11.484l-3.838,-5.492l-16.435,11.567l3.837,5.409Zm21.859,-15.312l16.353,-11.484l-3.838,-5.492l-16.353,11.484l3.838,5.492Zm21.859,-15.312l16.353,-11.567l-3.838,-5.409l-16.353,11.484l3.838,5.492Zm21.859,-15.395l16.353,-11.483l-3.838,-5.409l-16.436,11.483l3.921,5.409Zm21.776,-15.311l16.352,-11.484l-3.838,-5.409l-16.352,11.484l3.838,5.409Zm21.859,-15.312l16.352,-11.484l-3.838,-5.492l-16.352,11.567l3.838,5.409Zm21.858,-15.311l16.353,-11.484l-3.838,-5.492l-16.352,11.483l3.837,5.493Zm21.776,-15.312l16.436,-11.484l-3.921,-5.492l-16.353,11.484l3.838,5.492Zm21.859,-15.395l16.352,-11.484l-3.837,-5.409l-16.353,11.484l3.838,5.409Zm21.859,-15.312l16.352,-11.483l-3.838,-5.409l-16.352,11.483l3.838,5.409Zm21.775,-15.311l16.436,-11.484l-3.838,-5.409l-16.436,11.484l3.838,5.409Zm21.859,-15.312l0.167,-0.083l-3.838,-5.492l-0.167,0.083l3.838,5.492Zm-10.345,23.8l14.016,-30.457l-33.456,2.912c-1.835,0.084 -3.17,1.748 -3.003,3.579c0.083,1.83 1.752,3.162 3.587,2.995l27.699,-2.33l-3.337,-4.743l-11.597,25.298c-0.751,1.664 0,3.578 1.669,4.41c1.669,0.749 3.671,0 4.422,-1.664Z" style="fill:#4472c4;fill-rule:nonzero;stroke:#4472c4;stroke-width:0.08px;stroke-linejoin:round;stroke-miterlimit:1.41421;"/><g transform="matrix(1.3349,0,0,1.33145,2059.5,410.673)"><text x="0px" y="0px" style="font-family:'FiraSans-Regular', 'Fira Sans', sans-serif;font-size:54px;fill:#0070c0;">u</text><text x="31px" y="0px" style="font-family:'FiraSans-Regular', 'Fira Sans', sans-serif;font-size:54px;fill:#0070c0;">s</text><text x="56px" y="0px" style="font-family:'FiraSans-Regular', 'Fira Sans', sans-serif;font-size:54px;fill:#0070c0;">e</text><text x="85px" y="0px" style="font-family:'FiraSans-Regular', 'Fira Sans', sans-serif;font-size:54px;fill:#0070c0;">s</text></g><g transform="matrix(1.3349,0,0,1.33145,1813.8,882.905)"><text x="0px" y="0px" style="font-family:'FiraSans-Regular', 'Fira Sans', sans-serif;font-size:54px;fill:#0070c0;">u</text><text x="31px" y="0px" style="font-family:'FiraSans-Regular', 'Fira Sans', sans-serif;font-size:54px;fill:#0070c0;">s</text><text x="56px" y="0px" style="font-family:'FiraSans-Regular', 'Fira Sans', sans-serif;font-size:54px;fill:#0070c0;">e</text><text x="85px" y="0px" style="font-family:'FiraSans-Regular', 'Fira Sans', sans-serif;font-size:54px;fill:#0070c0;">s</text></g></svg>