<?xml version="1.0" encoding="UTF-8" standalone="no"?><!DOCTYPE svg PUBLIC "-//W3C//DTD SVG 1.1//EN" "http://www.w3.org/Graphics/SVG/1.1/DTD/svg11.dtd"><svg width="100%" height="100%" viewBox="0 0 1737 743" version="1.1" xmlns="http://www.w3.org/2000/svg" xmlns:xlink="http://www.w3.org/1999/xlink" xml:space="preserve" xmlns:serif="http://www.serif.com/" style="fill-rule:evenodd;clip-rule:evenodd;stroke-miterlimit:8;"><g><rect x="500.852" y="0.792" width="292.097" height="178.131" style="fill:#fff;"/><rect x="0" y="0" width="1736.71" height="742.607" style="fill:none;"/><clipPath id="_clip1"><rect x="0" y="0" width="1736.71" height="742.607"/></clipPath><g clip-path="url(#_clip1)"><rect x="500.852" y="0.792" width="292.097" height="178.131" style="fill:none;stroke:#5b9bd5;stroke-width:2.38px;"/></g><rect x="0" y="0" width="1736.71" height="742.607" style="fill:none;"/><g transform="matrix(0.793743,0,0,0.791692,589.545,112.263)"><path d="M22.68,-58.879c-10.672,0 -18.223,6.206 -18.223,15.112c0,8.99 5.873,13.275 17.13,16.719c9.833,3.025 12.522,5.546 12.522,11.175c0,6.973 -5.63,10.334 -12.438,10.334c-6.303,0 -10.838,-2.268 -15.2,-5.797l-4.366,4.873c4.785,4.698 11.33,7.466 19.65,7.466c13.025,0 20.66,-7.046 20.66,-17.128c0,-11.091 -7.886,-14.704 -17.13,-17.56c-10.421,-3.193 -12.69,-5.545 -12.69,-10.419c0,-5.545 4.622,-8.233 10.421,-8.233c4.79,0 8.824,1.512 13.191,5.041l4.362,-4.873c-4.866,-4.362 -9.905,-6.71 -17.889,-6.71Z" style="fill:#0070c0;fill-rule:nonzero;"/><path d="M94.043,-57.871l-8.054,0l0,38.724c0,8.988 -3.949,13.44 -12.269,13.44c-8.236,0 -12.185,-4.452 -12.185,-13.44l0,-38.724l-7.97,0l0,39.312c0,11.508 6.963,19.562 20.155,19.562c13.024,0 20.323,-8.054 20.323,-19.562l0,-39.312Z" style="fill:#0070c0;fill-rule:nonzero;"/><path d="M144.583,-57.871l-41.318,0l0,6.794l16.464,0l0,51.072l7.97,0l0,-51.072l16.044,0l0.84,-6.794Z" style="fill:#0070c0;fill-rule:nonzero;"/></g><rect x="0.794" y="1.583" width="292.097" height="178.131" style="fill:#fff;"/><rect x="0" y="0" width="1736.71" height="742.607" style="fill:none;"/><clipPath id="_clip2"><rect x="0" y="0" width="1736.71" height="742.607"/></clipPath><g clip-path="url(#_clip2)"><rect x="0.794" y="1.583" width="292.097" height="178.131" style="fill:none;stroke:#5b9bd5;stroke-width:2.38px;"/></g><rect x="0" y="0" width="1736.71" height="742.607" style="fill:none;"/><g transform="matrix(0.793743,0,0,0.791692,83.5329,113.118)"><path d="M42.583,-57.871l-41.318,0l0,6.794l16.464,0l0,51.072l7.97,0l0,-51.072l16.044,0l0.84,-6.794Z" style="fill:#0070c0;fill-rule:nonzero;"/><path d="M79.787,-23.434c0,-13.53 -6.292,-21.837 -18.223,-21.837c-11.428,0 -18.391,9.821 -18.391,23.598c0,14.033 7.215,22.676 19.567,22.676c6.136,0 11.091,-2.097 15.453,-5.535l-3.355,-4.622c-3.861,2.69 -7.139,3.867 -11.509,3.867c-6.387,0 -11.178,-3.951 -11.934,-14.206l28.224,0c0.084,-1.006 0.168,-2.432 0.168,-3.941Zm-7.634,-1.761l-20.758,0c0.588,-9.835 4.454,-13.954 10.337,-13.954c6.975,0 10.421,4.791 10.421,13.45l0,0.504Z" style="fill:#0070c0;fill-rule:nonzero;"/><path d="M104.372,-45.271c-9.16,0 -15.955,5.115 -15.955,12.172c0,6.218 3.775,10.335 13.349,12.856c8.574,2.268 10.759,3.949 10.759,8.318c0,4.201 -3.698,6.722 -9.498,6.722c-4.791,0 -8.905,-1.596 -12.429,-4.285l-4.113,4.705c3.862,3.354 9.231,5.786 16.71,5.786c8.994,0 17.468,-4.193 17.468,-13.432c0,-7.73 -5.369,-11.427 -14.694,-13.78c-7.145,-1.849 -9.498,-3.529 -9.498,-7.142c0,-3.529 3.11,-5.798 8.153,-5.798c4.119,0 7.565,1.26 11.509,3.781l3.271,-4.871c-4.194,-3.187 -8.812,-5.032 -15.032,-5.032Z" style="fill:#0070c0;fill-rule:nonzero;"/><path d="M150.759,-7.135c-2.184,1.176 -3.948,1.764 -5.88,1.764c-3.864,0 -5.292,-2.1 -5.292,-6.554l0,-26.384l9.66,0l0.84,-5.954l-10.5,0l0,-10.92l-7.718,0.924l0,9.996l-7.728,0l0,5.954l7.728,0l0,26.72c0,8.231 4.446,12.592 11.918,12.592c3.78,0 6.972,-1.007 9.912,-3.019l-2.94,-5.119Z" style="fill:#0070c0;fill-rule:nonzero;"/></g><path d="M292.941,91.539l205.877,-0.841l0,-2.375l-205.927,0.841l0.05,2.375Zm192.234,7.373l16.024,-9.451l-16.123,-9.253c-0.546,-0.346 -1.29,-0.148 -1.587,0.446c-0.348,0.544 -0.149,1.286 0.396,1.632l14.337,8.214l0,-2.028l-14.237,8.362c-0.596,0.346 -0.794,1.088 -0.447,1.633c0.347,0.544 1.092,0.742 1.637,0.445Z" style="fill:#4472c4;fill-rule:nonzero;stroke:#4472c4;stroke-width:0.05px;stroke-linejoin:round;stroke-miterlimit:1.41421;"/><g transform="matrix(0.793743,0,0,0.791692,316.047,79.8007)"><path d="M25.539,-37.203l-20.136,0l0,37.2l20.568,0l0,-4.098l-15.444,0l0,-12.75l12.528,0l0,-4.098l-12.528,0l0,-12.156l14.418,0l0.594,-4.098Z" style="fill:#0070c0;fill-rule:nonzero;"/><path d="M45.037,-15.228l8.746,-13.227l-5.615,0l-5.992,10.42l-5.938,-10.42l-5.831,0l8.8,13.443l-9.934,15.009l5.615,0l7.072,-12.039l6.964,12.039l5.993,0l-9.88,-15.225Z" style="fill:#0070c0;fill-rule:nonzero;"/><path d="M81.133,-15.065c0,-8.697 -4.045,-14.038 -11.715,-14.038c-7.346,0 -11.823,6.313 -11.823,15.17c0,9.021 4.638,14.578 12.579,14.578c3.944,0 7.13,-1.348 9.934,-3.558l-2.157,-2.971c-2.482,1.729 -4.589,2.485 -7.399,2.485c-4.106,0 -7.185,-2.539 -7.671,-9.132l18.144,0c0.054,-0.647 0.108,-1.564 0.108,-2.534Zm-4.908,-1.132l-13.344,0c0.378,-6.322 2.863,-8.97 6.645,-8.97c4.484,0 6.699,3.08 6.699,8.646l0,0.324Z" style="fill:#0070c0;fill-rule:nonzero;"/><path d="M101.007,-29.103c-3.456,0 -6.102,2.157 -7.614,6.42l-0.485,-5.772l-4.261,0l0,28.452l4.962,0l0,-16.25c1.188,-5.458 3.24,-7.996 6.804,-7.996c1.026,0 1.62,0.108 2.484,0.324l0.918,-4.854c-0.864,-0.216 -1.89,-0.324 -2.808,-0.324Z" style="fill:#0070c0;fill-rule:nonzero;"/><path d="M118.389,-29.103c-7.722,0 -12.414,6.042 -12.414,15.117c0,9.183 4.746,14.631 12.414,14.631c3.294,0 6.156,-1.079 8.694,-3.127l-2.268,-3.239c-2.16,1.404 -3.834,2.16 -6.21,2.16c-4.482,0 -7.29,-3.079 -7.29,-10.533c0,-7.4 2.808,-10.911 7.29,-10.911c2.376,0 4.158,0.702 6.102,2.106l2.376,-3.131c-2.646,-2.21 -5.346,-3.073 -8.694,-3.073Z" style="fill:#0070c0;fill-rule:nonzero;"/><path d="M136.454,-42.117c-2.05,0 -3.453,1.457 -3.453,3.399c0,1.888 1.403,3.345 3.453,3.345c2.104,0 3.507,-1.457 3.507,-3.345c0,-1.942 -1.403,-3.399 -3.507,-3.399Zm2.535,13.662l-4.962,0l0,28.452l4.962,0l0,-28.452Z" style="fill:#0070c0;fill-rule:nonzero;"/><path d="M156.746,-29.103c-5.888,0 -10.257,3.289 -10.257,7.825c0,3.997 2.427,6.644 8.582,8.264c5.511,1.459 6.916,2.539 6.916,5.348c0,2.701 -2.377,4.321 -6.106,4.321c-3.08,0 -5.724,-1.026 -7.989,-2.754l-2.645,3.024c2.483,2.156 5.934,3.72 10.742,3.72c5.782,0 11.23,-2.696 11.23,-8.635c0,-4.97 -3.452,-7.346 -9.446,-8.859c-4.593,-1.188 -6.106,-2.268 -6.106,-4.591c0,-2.269 1.999,-3.727 5.241,-3.727c2.648,0 4.863,0.81 7.398,2.43l2.104,-3.131c-2.697,-2.049 -5.665,-3.235 -9.664,-3.235Z" style="fill:#0070c0;fill-rule:nonzero;"/><path d="M195.513,-15.065c0,-8.697 -4.045,-14.038 -11.715,-14.038c-7.346,0 -11.823,6.313 -11.823,15.17c0,9.021 4.638,14.578 12.579,14.578c3.944,0 7.13,-1.348 9.934,-3.558l-2.157,-2.971c-2.482,1.729 -4.589,2.485 -7.399,2.485c-4.106,0 -7.185,-2.539 -7.671,-9.132l18.144,0c0.054,-0.647 0.108,-1.564 0.108,-2.534Zm-4.908,-1.132l-13.344,0c0.378,-6.322 2.863,-8.97 6.645,-8.97c4.484,0 6.699,3.08 6.699,8.646l0,0.324Z" style="fill:#0070c0;fill-rule:nonzero;"/></g><rect x="0.794" y="281.842" width="292.097" height="178.922" style="fill:#fff;"/><rect x="0" y="0" width="1736.71" height="742.607" style="fill:none;"/><clipPath id="_clip3"><rect x="0" y="0" width="1736.71" height="742.607"/></clipPath><g clip-path="url(#_clip3)"><rect x="0.794" y="281.842" width="292.097" height="178.922" style="fill:none;stroke:#5b9bd5;stroke-width:2.38px;"/></g><rect x="0" y="0" width="1736.71" height="742.607" style="fill:none;"/><g transform="matrix(0.793743,0,0,0.791692,83.5329,393.912)"><path d="M42.583,-57.871l-41.318,0l0,6.794l16.464,0l0,51.072l7.97,0l0,-51.072l16.044,0l0.84,-6.794Z" style="fill:#0070c0;fill-rule:nonzero;"/><path d="M79.787,-23.434c0,-13.53 -6.292,-21.837 -18.223,-21.837c-11.428,0 -18.391,9.821 -18.391,23.598c0,14.033 7.215,22.676 19.567,22.676c6.136,0 11.091,-2.097 15.453,-5.535l-3.355,-4.622c-3.861,2.69 -7.139,3.867 -11.509,3.867c-6.387,0 -11.178,-3.951 -11.934,-14.206l28.224,0c0.084,-1.006 0.168,-2.432 0.168,-3.941Zm-7.634,-1.761l-20.758,0c0.588,-9.835 4.454,-13.954 10.337,-13.954c6.975,0 10.421,4.791 10.421,13.45l0,0.504Z" style="fill:#0070c0;fill-rule:nonzero;"/><path d="M104.372,-45.271c-9.16,0 -15.955,5.115 -15.955,12.172c0,6.218 3.775,10.335 13.349,12.856c8.574,2.268 10.759,3.949 10.759,8.318c0,4.201 -3.698,6.722 -9.498,6.722c-4.791,0 -8.905,-1.596 -12.429,-4.285l-4.113,4.705c3.862,3.354 9.231,5.786 16.71,5.786c8.994,0 17.468,-4.193 17.468,-13.432c0,-7.73 -5.369,-11.427 -14.694,-13.78c-7.145,-1.849 -9.498,-3.529 -9.498,-7.142c0,-3.529 3.11,-5.798 8.153,-5.798c4.119,0 7.565,1.26 11.509,3.781l3.271,-4.871c-4.194,-3.187 -8.812,-5.032 -15.032,-5.032Z" style="fill:#0070c0;fill-rule:nonzero;"/><path d="M150.759,-7.135c-2.184,1.176 -3.948,1.764 -5.88,1.764c-3.864,0 -5.292,-2.1 -5.292,-6.554l0,-26.384l9.66,0l0.84,-5.954l-10.5,0l0,-10.92l-7.718,0.924l0,9.996l-7.728,0l0,5.954l7.728,0l0,26.72c0,8.231 4.446,12.592 11.918,12.592c3.78,0 6.972,-1.007 9.912,-3.019l-2.94,-5.119Z" style="fill:#0070c0;fill-rule:nonzero;"/></g><path d="M292.891,372.145l663.767,-0.446l0,-2.375l-663.767,0.446l0,2.375Zm650.075,7.719l16.074,-9.352l-16.074,-9.303c-0.545,-0.346 -1.289,-0.148 -1.637,0.446c-0.297,0.544 -0.149,1.286 0.447,1.583l14.287,8.313l0,-2.029l-14.287,8.313c-0.546,0.346 -0.744,1.039 -0.447,1.633c0.348,0.544 1.092,0.742 1.637,0.396Z" style="fill:#4472c4;fill-rule:nonzero;stroke:#4472c4;stroke-width:0.05px;stroke-linejoin:round;stroke-miterlimit:1.41421;"/><g transform="matrix(0.793743,0,0,0.791692,554.278,360.594)"><path d="M25.539,-37.203l-20.136,0l0,37.2l20.568,0l0,-4.098l-15.444,0l0,-12.75l12.528,0l0,-4.098l-12.528,0l0,-12.156l14.418,0l0.594,-4.098Z" style="fill:#0070c0;fill-rule:nonzero;"/><path d="M45.037,-15.228l8.746,-13.227l-5.615,0l-5.992,10.42l-5.938,-10.42l-5.831,0l8.8,13.443l-9.934,15.009l5.615,0l7.072,-12.039l6.964,12.039l5.993,0l-9.88,-15.225Z" style="fill:#0070c0;fill-rule:nonzero;"/><path d="M81.133,-15.065c0,-8.697 -4.045,-14.038 -11.715,-14.038c-7.346,0 -11.823,6.313 -11.823,15.17c0,9.021 4.638,14.578 12.579,14.578c3.944,0 7.13,-1.348 9.934,-3.558l-2.157,-2.971c-2.482,1.729 -4.589,2.485 -7.399,2.485c-4.106,0 -7.185,-2.539 -7.671,-9.132l18.144,0c0.054,-0.647 0.108,-1.564 0.108,-2.534Zm-4.908,-1.132l-13.344,0c0.378,-6.322 2.863,-8.97 6.645,-8.97c4.484,0 6.699,3.08 6.699,8.646l0,0.324Z" style="fill:#0070c0;fill-rule:nonzero;"/><path d="M101.007,-29.103c-3.456,0 -6.102,2.157 -7.614,6.42l-0.485,-5.772l-4.261,0l0,28.452l4.962,0l0,-16.25c1.188,-5.458 3.24,-7.996 6.804,-7.996c1.026,0 1.62,0.108 2.484,0.324l0.918,-4.854c-0.864,-0.216 -1.89,-0.324 -2.808,-0.324Z" style="fill:#0070c0;fill-rule:nonzero;"/><path d="M118.389,-29.103c-7.722,0 -12.414,6.042 -12.414,15.117c0,9.183 4.746,14.631 12.414,14.631c3.294,0 6.156,-1.079 8.694,-3.127l-2.268,-3.239c-2.16,1.404 -3.834,2.16 -6.21,2.16c-4.482,0 -7.29,-3.079 -7.29,-10.533c0,-7.4 2.808,-10.911 7.29,-10.911c2.376,0 4.158,0.702 6.102,2.106l2.376,-3.131c-2.646,-2.21 -5.346,-3.073 -8.694,-3.073Z" style="fill:#0070c0;fill-rule:nonzero;"/><path d="M136.454,-42.117c-2.05,0 -3.453,1.457 -3.453,3.399c0,1.888 1.403,3.345 3.453,3.345c2.104,0 3.507,-1.457 3.507,-3.345c0,-1.942 -1.403,-3.399 -3.507,-3.399Zm2.535,13.662l-4.962,0l0,28.452l4.962,0l0,-28.452Z" style="fill:#0070c0;fill-rule:nonzero;"/><path d="M156.746,-29.103c-5.888,0 -10.257,3.289 -10.257,7.825c0,3.997 2.427,6.644 8.582,8.264c5.511,1.459 6.916,2.539 6.916,5.348c0,2.701 -2.377,4.321 -6.106,4.321c-3.08,0 -5.724,-1.026 -7.989,-2.754l-2.645,3.024c2.483,2.156 5.934,3.72 10.742,3.72c5.782,0 11.23,-2.696 11.23,-8.635c0,-4.97 -3.452,-7.346 -9.446,-8.859c-4.593,-1.188 -6.106,-2.268 -6.106,-4.591c0,-2.269 1.999,-3.727 5.241,-3.727c2.648,0 4.863,0.81 7.398,2.43l2.104,-3.131c-2.697,-2.049 -5.665,-3.235 -9.664,-3.235Z" style="fill:#0070c0;fill-rule:nonzero;"/><path d="M195.513,-15.065c0,-8.697 -4.045,-14.038 -11.715,-14.038c-7.346,0 -11.823,6.313 -11.823,15.17c0,9.021 4.638,14.578 12.579,14.578c3.944,0 7.13,-1.348 9.934,-3.558l-2.157,-2.971c-2.482,1.729 -4.589,2.485 -7.399,2.485c-4.106,0 -7.185,-2.539 -7.671,-9.132l18.144,0c0.054,-0.647 0.108,-1.564 0.108,-2.534Zm-4.908,-1.132l-13.344,0c0.378,-6.322 2.863,-8.97 6.645,-8.97c4.484,0 6.699,3.08 6.699,8.646l0,0.324Z" style="fill:#0070c0;fill-rule:nonzero;"/></g><rect x="1443.02" y="562.893" width="292.097" height="178.131" style="fill:#fff;"/><rect x="0" y="0" width="1736.71" height="742.607" style="fill:none;"/><clipPath id="_clip4"><rect x="0" y="0" width="1736.71" height="742.607"/></clipPath><g clip-path="url(#_clip4)"><rect x="1443.02" y="562.893" width="292.097" height="178.131" style="fill:none;stroke:#5b9bd5;stroke-width:2.38px;"/></g><rect x="0" y="0" width="1736.71" height="742.607" style="fill:none;"/><g transform="matrix(0.793743,0,0,0.791692,1531.92,674.706)"><path d="M22.68,-58.879c-10.672,0 -18.223,6.206 -18.223,15.112c0,8.99 5.873,13.275 17.13,16.719c9.833,3.025 12.522,5.546 12.522,11.175c0,6.973 -5.63,10.334 -12.438,10.334c-6.303,0 -10.838,-2.268 -15.2,-5.797l-4.366,4.873c4.785,4.698 11.33,7.466 19.65,7.466c13.025,0 20.66,-7.046 20.66,-17.128c0,-11.091 -7.886,-14.704 -17.13,-17.56c-10.421,-3.193 -12.69,-5.545 -12.69,-10.419c0,-5.545 4.622,-8.233 10.421,-8.233c4.79,0 8.824,1.512 13.191,5.041l4.362,-4.873c-4.866,-4.362 -9.905,-6.71 -17.889,-6.71Z" style="fill:#0070c0;fill-rule:nonzero;"/><path d="M94.043,-57.871l-8.054,0l0,38.724c0,8.988 -3.949,13.44 -12.269,13.44c-8.236,0 -12.185,-4.452 -12.185,-13.44l0,-38.724l-7.97,0l0,39.312c0,11.508 6.963,19.562 20.155,19.562c13.024,0 20.323,-8.054 20.323,-19.562l0,-39.312Z" style="fill:#0070c0;fill-rule:nonzero;"/><path d="M144.583,-57.871l-41.318,0l0,6.794l16.464,0l0,51.072l7.97,0l0,-51.072l16.044,0l0.84,-6.794Z" style="fill:#0070c0;fill-rule:nonzero;"/></g><rect x="0.794" y="562.893" width="292.097" height="178.131" style="fill:#fff;"/><rect x="0" y="0" width="1736.71" height="742.607" style="fill:none;"/><clipPath id="_clip5"><rect x="0" y="0" width="1736.71" height="742.607"/></clipPath><g clip-path="url(#_clip5)"><rect x="0.794" y="562.893" width="292.097" height="178.131" style="fill:none;stroke:#5b9bd5;stroke-width:2.38px;"/></g><rect x="0" y="0" width="1736.71" height="742.607" style="fill:none;"/><g transform="matrix(0.793743,0,0,0.791692,83.5329,674.706)"><path d="M42.583,-57.871l-41.318,0l0,6.794l16.464,0l0,51.072l7.97,0l0,-51.072l16.044,0l0.84,-6.794Z" style="fill:#0070c0;fill-rule:nonzero;"/><path d="M79.787,-23.434c0,-13.53 -6.292,-21.837 -18.223,-21.837c-11.428,0 -18.391,9.821 -18.391,23.598c0,14.033 7.215,22.676 19.567,22.676c6.136,0 11.091,-2.097 15.453,-5.535l-3.355,-4.622c-3.861,2.69 -7.139,3.867 -11.509,3.867c-6.387,0 -11.178,-3.951 -11.934,-14.206l28.224,0c0.084,-1.006 0.168,-2.432 0.168,-3.941Zm-7.634,-1.761l-20.758,0c0.588,-9.835 4.454,-13.954 10.337,-13.954c6.975,0 10.421,4.791 10.421,13.45l0,0.504Z" style="fill:#0070c0;fill-rule:nonzero;"/><path d="M104.372,-45.271c-9.16,0 -15.955,5.115 -15.955,12.172c0,6.218 3.775,10.335 13.349,12.856c8.574,2.268 10.759,3.949 10.759,8.318c0,4.201 -3.698,6.722 -9.498,6.722c-4.791,0 -8.905,-1.596 -12.429,-4.285l-4.113,4.705c3.862,3.354 9.231,5.786 16.71,5.786c8.994,0 17.468,-4.193 17.468,-13.432c0,-7.73 -5.369,-11.427 -14.694,-13.78c-7.145,-1.849 -9.498,-3.529 -9.498,-7.142c0,-3.529 3.11,-5.798 8.153,-5.798c4.119,0 7.565,1.26 11.509,3.781l3.271,-4.871c-4.194,-3.187 -8.812,-5.032 -15.032,-5.032Z" style="fill:#0070c0;fill-rule:nonzero;"/><path d="M150.759,-7.135c-2.184,1.176 -3.948,1.764 -5.88,1.764c-3.864,0 -5.292,-2.1 -5.292,-6.554l0,-26.384l9.66,0l0.84,-5.954l-10.5,0l0,-10.92l-7.718,0.924l0,9.996l-7.728,0l0,5.954l7.728,0l0,26.72c0,8.231 4.446,12.592 11.918,12.592c3.78,0 6.972,-1.007 9.912,-3.019l-2.94,-5.119Z" style="fill:#0070c0;fill-rule:nonzero;"/></g><path d="M292.891,653.542l1148.3,0l0,-2.376l-1148.3,0l0,2.376Zm1134.61,8.164l16.073,-9.352l-16.073,-9.302c-0.546,-0.347 -1.29,-0.149 -1.588,0.395c-0.347,0.594 -0.149,1.336 0.397,1.633l14.287,8.313l0,-2.029l-14.287,8.313c-0.546,0.297 -0.744,1.039 -0.397,1.633c0.298,0.544 1.042,0.742 1.588,0.396Z" style="fill:#4472c4;fill-rule:nonzero;stroke:#4472c4;stroke-width:0.05px;stroke-linejoin:round;stroke-miterlimit:1.41421;"/><g transform="matrix(0.793743,0,0,0.791692,787.236,642.244)"><path d="M25.539,-37.203l-20.136,0l0,37.2l20.568,0l0,-4.098l-15.444,0l0,-12.75l12.528,0l0,-4.098l-12.528,0l0,-12.156l14.418,0l0.594,-4.098Z" style="fill:#0070c0;fill-rule:nonzero;"/><path d="M45.037,-15.228l8.746,-13.227l-5.615,0l-5.992,10.42l-5.938,-10.42l-5.831,0l8.8,13.443l-9.934,15.009l5.615,0l7.072,-12.039l6.964,12.039l5.993,0l-9.88,-15.225Z" style="fill:#0070c0;fill-rule:nonzero;"/><path d="M81.133,-15.065c0,-8.697 -4.045,-14.038 -11.715,-14.038c-7.346,0 -11.823,6.313 -11.823,15.17c0,9.021 4.638,14.578 12.579,14.578c3.944,0 7.13,-1.348 9.934,-3.558l-2.157,-2.971c-2.482,1.729 -4.589,2.485 -7.399,2.485c-4.106,0 -7.185,-2.539 -7.671,-9.132l18.144,0c0.054,-0.647 0.108,-1.564 0.108,-2.534Zm-4.908,-1.132l-13.344,0c0.378,-6.322 2.863,-8.97 6.645,-8.97c4.484,0 6.699,3.08 6.699,8.646l0,0.324Z" style="fill:#0070c0;fill-rule:nonzero;"/><path d="M101.007,-29.103c-3.456,0 -6.102,2.157 -7.614,6.42l-0.485,-5.772l-4.261,0l0,28.452l4.962,0l0,-16.25c1.188,-5.458 3.24,-7.996 6.804,-7.996c1.026,0 1.62,0.108 2.484,0.324l0.918,-4.854c-0.864,-0.216 -1.89,-0.324 -2.808,-0.324Z" style="fill:#0070c0;fill-rule:nonzero;"/><path d="M118.389,-29.103c-7.722,0 -12.414,6.042 -12.414,15.117c0,9.183 4.746,14.631 12.414,14.631c3.294,0 6.156,-1.079 8.694,-3.127l-2.268,-3.239c-2.16,1.404 -3.834,2.16 -6.21,2.16c-4.482,0 -7.29,-3.079 -7.29,-10.533c0,-7.4 2.808,-10.911 7.29,-10.911c2.376,0 4.158,0.702 6.102,2.106l2.376,-3.131c-2.646,-2.21 -5.346,-3.073 -8.694,-3.073Z" style="fill:#0070c0;fill-rule:nonzero;"/><path d="M136.454,-42.117c-2.05,0 -3.453,1.457 -3.453,3.399c0,1.888 1.403,3.345 3.453,3.345c2.104,0 3.507,-1.457 3.507,-3.345c0,-1.942 -1.403,-3.399 -3.507,-3.399Zm2.535,13.662l-4.962,0l0,28.452l4.962,0l0,-28.452Z" style="fill:#0070c0;fill-rule:nonzero;"/><path d="M156.746,-29.103c-5.888,0 -10.257,3.289 -10.257,7.825c0,3.997 2.427,6.644 8.582,8.264c5.511,1.459 6.916,2.539 6.916,5.348c0,2.701 -2.377,4.321 -6.106,4.321c-3.08,0 -5.724,-1.026 -7.989,-2.754l-2.645,3.024c2.483,2.156 5.934,3.72 10.742,3.72c5.782,0 11.23,-2.696 11.23,-8.635c0,-4.97 -3.452,-7.346 -9.446,-8.859c-4.593,-1.188 -6.106,-2.268 -6.106,-4.591c0,-2.269 1.999,-3.727 5.241,-3.727c2.648,0 4.863,0.81 7.398,2.43l2.104,-3.131c-2.697,-2.049 -5.665,-3.235 -9.664,-3.235Z" style="fill:#0070c0;fill-rule:nonzero;"/><path d="M195.513,-15.065c0,-8.697 -4.045,-14.038 -11.715,-14.038c-7.346,0 -11.823,6.313 -11.823,15.17c0,9.021 4.638,14.578 12.579,14.578c3.944,0 7.13,-1.348 9.934,-3.558l-2.157,-2.971c-2.482,1.729 -4.589,2.485 -7.399,2.485c-4.106,0 -7.185,-2.539 -7.671,-9.132l18.144,0c0.054,-0.647 0.108,-1.564 0.108,-2.534Zm-4.908,-1.132l-13.344,0c0.378,-6.322 2.863,-8.97 6.645,-8.97c4.484,0 6.699,3.08 6.699,8.646l0,0.324Z" style="fill:#0070c0;fill-rule:nonzero;"/></g><path d="M794.239,177.388l9.227,7.521l-2.48,3.068l-9.277,-7.471l2.53,-3.118Zm12.303,9.996l9.277,7.471l-2.53,3.068l-9.228,-7.472l2.481,-3.067Zm12.352,9.995l9.228,7.471l-2.481,3.068l-9.277,-7.472l2.53,-3.067Zm12.303,9.945l9.277,7.472l-2.53,3.068l-9.227,-7.472l2.48,-3.068Zm12.353,9.995l9.227,7.472l-2.48,3.068l-9.277,-7.472l2.53,-3.068Zm12.303,9.946l9.277,7.472l-2.53,3.117l-9.227,-7.521l2.48,-3.068Zm12.353,9.995l9.227,7.472l-2.48,3.068l-9.277,-7.472l2.53,-3.068Zm12.303,9.946l9.277,7.521l-2.53,3.068l-9.228,-7.472l2.481,-3.117Zm12.352,9.995l9.228,7.471l-2.481,3.068l-9.227,-7.471l2.48,-3.068Zm12.303,9.995l9.277,7.472l-2.53,3.067l-9.227,-7.471l2.48,-3.068Zm12.353,9.946l9.227,7.471l-2.48,3.117l-9.227,-7.521l2.48,-3.067Zm12.353,9.995l9.227,7.471l-2.481,3.068l-9.276,-7.472l2.53,-3.067Zm12.303,9.945l9.227,7.521l-2.481,3.068l-9.227,-7.471l2.481,-3.118Zm12.352,9.995l1.935,1.584l-2.48,3.068l-1.985,-1.584l2.53,-3.068Zm-3.274,-13.013l7.045,18.605l-19.745,-3.019c-1.042,-0.197 -1.786,-1.187 -1.637,-2.276c0.149,-1.088 1.191,-1.83 2.282,-1.633l16.321,2.524l-2.133,2.622l-5.854,-15.438c-0.396,-0.989 0.1,-2.127 1.141,-2.523c1.042,-0.396 2.183,0.099 2.58,1.138Z" style="fill:#4472c4;fill-rule:nonzero;stroke:#4472c4;stroke-width:0.05px;stroke-linejoin:round;stroke-miterlimit:1.41421;"/><g transform="matrix(0.793743,0,0,0.791692,761.508,263.662)"><path d="M26.295,-28.455l-4.962,0l0,20.304c-1.729,2.862 -4.052,4.914 -7.132,4.914c-3.08,0 -4.376,-1.458 -4.376,-5.346l0,-19.872l-4.962,0l0,20.412c0,5.561 2.966,8.688 7.933,8.688c4.053,0 6.7,-1.618 8.861,-5.07l0.377,4.422l4.261,0l0,-28.452Z" style="fill:#0070c0;fill-rule:nonzero;"/><path d="M43.852,-29.103c-5.888,0 -10.257,3.289 -10.257,7.825c0,3.997 2.427,6.644 8.582,8.264c5.511,1.459 6.916,2.539 6.916,5.348c0,2.701 -2.377,4.321 -6.106,4.321c-3.08,0 -5.724,-1.026 -7.989,-2.754l-2.645,3.024c2.483,2.156 5.934,3.72 10.742,3.72c5.782,0 11.23,-2.696 11.23,-8.635c0,-4.97 -3.452,-7.346 -9.446,-8.859c-4.593,-1.188 -6.106,-2.268 -6.106,-4.591c0,-2.269 1.999,-3.727 5.241,-3.727c2.648,0 4.863,0.81 7.398,2.43l2.104,-3.131c-2.697,-2.049 -5.665,-3.235 -9.664,-3.235Z" style="fill:#0070c0;fill-rule:nonzero;"/><path d="M82.619,-15.065c0,-8.697 -4.045,-14.038 -11.715,-14.038c-7.346,0 -11.823,6.313 -11.823,15.17c0,9.021 4.638,14.578 12.579,14.578c3.944,0 7.13,-1.348 9.934,-3.558l-2.157,-2.971c-2.482,1.729 -4.589,2.485 -7.399,2.485c-4.106,0 -7.185,-2.539 -7.671,-9.132l18.144,0c0.054,-0.647 0.108,-1.564 0.108,-2.534Zm-4.908,-1.132l-13.344,0c0.378,-6.322 2.863,-8.97 6.645,-8.97c4.484,0 6.699,3.08 6.699,8.646l0,0.324Z" style="fill:#0070c0;fill-rule:nonzero;"/><path d="M97.852,-29.103c-5.888,0 -10.257,3.289 -10.257,7.825c0,3.997 2.427,6.644 8.582,8.264c5.511,1.459 6.916,2.539 6.916,5.348c0,2.701 -2.377,4.321 -6.106,4.321c-3.08,0 -5.724,-1.026 -7.989,-2.754l-2.645,3.024c2.483,2.156 5.934,3.72 10.742,3.72c5.782,0 11.23,-2.696 11.23,-8.635c0,-4.97 -3.452,-7.346 -9.446,-8.859c-4.593,-1.188 -6.106,-2.268 -6.106,-4.591c0,-2.269 1.999,-3.727 5.241,-3.727c2.648,0 4.863,0.81 7.398,2.43l2.104,-3.131c-2.697,-2.049 -5.665,-3.235 -9.664,-3.235Z" style="fill:#0070c0;fill-rule:nonzero;"/></g><rect x="919.154" y="0.792" width="292.097" height="178.131" style="fill:#fff;"/><rect x="0" y="0" width="1736.71" height="742.607" style="fill:none;"/><clipPath id="_clip6"><rect x="0" y="0" width="1736.71" height="742.607" clip-rule="nonzero"/></clipPath><g clip-path="url(#_clip6)"><path d="M917.963,178.922l0,-19l2.382,0l0,19l-2.382,0Zm0,-26.125l0,-19.001l2.382,0l0,19.001l-2.382,0Zm0,-26.126l0,-19.001l2.382,0l0,19.001l-2.382,0Zm0,-26.126l0,-19.001l2.382,0l0,19.001l-2.382,0Zm0,-26.126l0,-19.001l2.382,0l0,19.001l-2.382,0Zm0,-26.126l0,-19l2.382,0l0,19l-2.382,0Zm0,-26.126l0,-19l2.382,0l0,19l-2.382,0Zm5.954,-22.563l19.049,0l0,2.375l-19.049,0l0,-2.375Zm26.193,0l19.05,0l0,2.375l-19.05,0l0,-2.375Zm26.194,0l19.049,0l0,2.375l-19.049,0l0,-2.375Zm26.193,0l19.05,0l0,2.375l-19.05,0l0,-2.375Zm26.194,0l19.049,0l0,2.375l-19.049,0l0,-2.375Zm26.193,0l19.05,0l0,2.375l-19.05,0l0,-2.375Zm26.194,0l19.049,0l0,2.375l-19.049,0l0,-2.375Zm26.193,0l19.05,0l0,2.375l-19.05,0l0,-2.375Zm26.194,0l19.049,0l0,2.375l-19.049,0l0,-2.375Zm26.193,0l19.05,0l0,2.375l-19.05,0l0,-2.375Zm26.194,0l19.049,0l0,2.375l-19.049,0l0,-2.375Zm26.59,1.979l0,19.001l-2.381,0l0,-19.001l2.381,0Zm0,26.126l0,19.001l-2.381,0l0,-19.001l2.381,0Zm0,26.126l0,19.001l-2.381,0l0,-19.001l2.381,0Zm0,26.126l0,19l-2.381,0l0,-19l2.381,0Zm0,26.126l0,19l-2.381,0l0,-19l2.381,0Zm0,26.126l0,19l-2.381,0l0,-19l2.381,0Zm0,26.125l0,19.001l-2.381,0l0,-19.001l2.381,0Zm-6.747,21.772l-19.05,0l0,-2.375l19.05,0l0,2.375Zm-26.193,0l-19.05,0l0,-2.375l19.05,0l0,2.375Zm-26.194,0l-19.05,0l0,-2.375l19.05,0l0,2.375Zm-26.193,0l-19.05,0l0,-2.375l19.05,0l0,2.375Zm-26.194,0l-19.05,0l0,-2.375l19.05,0l0,2.375Zm-26.193,0l-19.05,0l0,-2.375l19.05,0l0,2.375Zm-26.194,0l-19.05,0l0,-2.375l19.05,0l0,2.375Zm-26.193,0l-19.05,0l0,-2.375l19.05,0l0,2.375Zm-26.194,0l-19.05,0l0,-2.375l19.05,0l0,2.375Zm-26.193,0l-19.05,0l0,-2.375l19.05,0l0,2.375Zm-26.194,0l-19.05,0l0,-2.375l19.05,0l0,2.375Z" style="fill:#5b9bd5;fill-rule:nonzero;stroke:#5b9bd5;stroke-width:0.05px;stroke-linejoin:round;stroke-miterlimit:1.41421;"/></g><rect x="0" y="0" width="1736.71" height="742.607" style="fill:none;"/><g transform="matrix(0.793743,0,0,0.791692,1010.62,74.2616)"><path d="M36.5,-49.603l-35.416,0l0.001,5.823l14.112,0l0,43.776l6.831,0l0,-43.777l13.752,0.001l0.72,-5.823Z" style="fill:#0070c0;fill-rule:nonzero;"/><path d="M68.532,-20.086c0,-11.597 -5.393,-18.717 -15.62,-18.717c-9.795,-0.001 -15.763,8.417 -15.763,20.226c0,12.028 6.184,19.437 16.771,19.437c5.259,-0.001 9.507,-1.798 13.245,-4.745l-2.876,-3.961c-3.309,2.306 -6.118,3.314 -9.864,3.314c-5.475,0 -9.581,-3.386 -10.229,-12.177l24.192,0c0.072,-0.862 0.144,-2.084 0.144,-3.377Zm-6.543,-1.51l-17.793,0c0.504,-8.43 3.817,-11.961 8.86,-11.961c5.979,0 8.933,4.108 8.933,11.529l0,0.432Z" style="fill:#0070c0;fill-rule:nonzero;"/><path d="M89.176,-38.804c-7.851,0.001 -13.675,4.385 -13.675,10.433c0,5.33 3.235,8.859 11.441,11.02c7.349,1.944 9.223,3.385 9.223,7.13c0,3.601 -3.171,5.762 -8.142,5.762c-4.107,0 -7.633,-1.369 -10.653,-3.674l-3.525,4.033c3.309,2.875 7.911,4.96 14.322,4.96c7.709,0 14.973,-3.594 14.973,-11.513c0,-6.626 -4.603,-9.795 -12.595,-11.812c-6.124,-1.584 -8.141,-3.025 -8.141,-6.122c0,-3.025 2.665,-4.969 6.988,-4.969c3.53,0 6.484,1.08 9.865,3.241l2.804,-4.176c-3.595,-2.731 -7.554,-4.312 -12.885,-4.312Z" style="fill:#0070c0;fill-rule:nonzero;"/><path d="M129.508,-6.116c-1.872,1.008 -3.384,1.513 -5.04,1.513c-3.312,0 -4.536,-1.801 -4.536,-5.618l0,-22.616l8.28,0.001l0.72,-5.103l-9,0l0,-9.36l-6.615,0.791l0,8.569l-6.624,0l0,5.103l6.624,0l0,22.903c0,7.055 3.81,10.793 10.215,10.793c3.24,0 5.976,-0.863 8.496,-2.588l-2.52,-4.388Z" style="fill:#0070c0;fill-rule:nonzero;"/></g><g transform="matrix(0.793743,0,0,0.791692,973.309,143.139)"><path d="M29.597,-53.996l-0.001,19.864c-2.521,-2.659 -5.762,-4.671 -10.229,-4.671c-9.29,0 -14.898,8.416 -14.898,20.011c0,11.812 5.105,19.652 14.322,19.652c4.682,0 8.5,-2.301 10.949,-6.112l0.647,5.248l5.825,0l0,-53.2l-6.615,-0.792Zm-9.365,49.609c-5.475,0 -8.644,-4.538 -8.644,-14.549c0,-9.867 3.529,-14.62 9.22,-14.62c3.746,0 6.411,1.944 8.789,4.969l0,18.582c-2.522,3.529 -5.115,5.618 -9.365,5.618Z" style="fill:#0070c0;fill-rule:nonzero;"/><path d="M64.096,-38.804c-10.803,0.001 -16.987,8.129 -16.987,19.868c0,12.028 6.112,19.796 16.915,19.796c10.731,0 16.916,-8.128 16.916,-19.868c0,-12.028 -6.041,-19.795 -16.844,-19.795Zm0,5.319c6.267,0 9.725,4.609 9.725,14.476c0,9.939 -3.458,14.549 -9.797,14.549c-6.339,0 -9.796,-4.61 -9.796,-14.477c0,-9.939 3.529,-14.548 9.868,-14.548Z" style="fill:#0070c0;fill-rule:nonzero;"/><path d="M120.059,-37.94l-6.615,0l0,27.072c-2.305,3.816 -5.403,6.552 -9.509,6.552c-4.106,0 -5.836,-1.944 -5.836,-7.128l0,-26.496l-6.615,0l0,27.216c0,7.415 3.955,11.583 10.578,11.583c5.403,0 8.933,-2.156 11.814,-6.759l0.503,5.896l5.68,0l0,-37.936Z" style="fill:#0070c0;fill-rule:nonzero;"/><path d="M151.193,-38.804c-4.61,0.001 -8.14,2.085 -10.733,5.608l0,-20.8l-6.615,0.792l0,53.2l5.824,0l0.647,-4.168c2.593,3.163 5.906,5.031 10.085,5.031c9.218,0 14.899,-7.983 14.899,-19.867c0,-12.676 -5.538,-19.796 -14.107,-19.796Zm-2.377,34.416c-3.386,0 -6.412,-2.088 -8.356,-5.113l0,-18.15c1.944,-3.025 4.682,-5.906 8.86,-5.906c5.331,0 8.861,3.746 8.861,14.549c0,10.371 -3.819,14.62 -9.365,14.62Z" style="fill:#0070c0;fill-rule:nonzero;"/><path d="M184.396,0.86c1.944,0 3.816,-0.504 5.256,-1.294l-1.728,-4.602c-0.72,0.289 -1.512,0.433 -2.448,0.433c-1.728,0 -2.376,-1.008 -2.376,-3.024l0,-46.369l-6.615,0.792l0,45.721c0,5.395 3.091,8.342 7.911,8.342Z" style="fill:#0070c0;fill-rule:nonzero;"/><path d="M226.132,-20.086c0,-11.597 -5.393,-18.717 -15.62,-18.717c-9.795,-0.001 -15.763,8.417 -15.763,20.226c0,12.028 6.184,19.437 16.771,19.437c5.259,-0.001 9.507,-1.798 13.245,-4.745l-2.876,-3.961c-3.309,2.306 -6.118,3.314 -9.864,3.314c-5.475,0 -9.581,-3.386 -10.229,-12.177l24.192,0c0.072,-0.862 0.144,-2.084 0.144,-3.377Zm-6.543,-1.51l-17.793,0c0.504,-8.43 3.817,-11.961 8.86,-11.961c5.979,0 8.933,4.108 8.933,11.529l0,0.432Z" style="fill:#0070c0;fill-rule:nonzero;"/></g><rect x="958.047" y="281.842" width="292.891" height="178.131" style="fill:#fff;"/><rect x="958.047" y="281.842" width="292.891" height="178.131" style="fill:none;stroke:#5b9bd5;stroke-width:2.38px;"/><g transform="matrix(0.793743,0,0,0.791692,1047.03,393.484)"><path d="M22.68,-58.879c-10.672,0 -18.223,6.206 -18.223,15.112c0,8.99 5.873,13.275 17.13,16.719c9.833,3.025 12.522,5.546 12.522,11.175c0,6.973 -5.63,10.334 -12.438,10.334c-6.303,0 -10.838,-2.268 -15.2,-5.797l-4.366,4.873c4.785,4.698 11.33,7.466 19.65,7.466c13.025,0 20.66,-7.046 20.66,-17.128c0,-11.091 -7.886,-14.704 -17.13,-17.56c-10.421,-3.193 -12.69,-5.545 -12.69,-10.419c0,-5.545 4.622,-8.233 10.421,-8.233c4.79,0 8.824,1.512 13.191,5.041l4.362,-4.873c-4.866,-4.362 -9.905,-6.71 -17.889,-6.71Z" style="fill:#0070c0;fill-rule:nonzero;"/><path d="M94.043,-57.871l-8.054,0l0,38.724c0,8.988 -3.949,13.44 -12.269,13.44c-8.236,0 -12.185,-4.452 -12.185,-13.44l0,-38.724l-7.97,0l0,39.312c0,11.508 6.963,19.562 20.155,19.562c13.024,0 20.323,-8.054 20.323,-19.562l0,-39.312Z" style="fill:#0070c0;fill-rule:nonzero;"/><path d="M144.583,-57.871l-41.318,0l0,6.794l16.464,0l0,51.072l7.97,0l0,-51.072l16.044,0l0.84,-6.794Z" style="fill:#0070c0;fill-rule:nonzero;"/></g><path d="M1252.08,458.39l9.773,6.778l-2.282,3.266l-9.724,-6.828l2.233,-3.216Zm13.047,9.054l9.773,6.779l-2.282,3.266l-9.773,-6.828l2.282,-3.217Zm12.997,9.055l9.773,6.779l-2.282,3.266l-9.773,-6.779l2.282,-3.266Zm13.047,9.055l9.724,6.779l-2.233,3.266l-9.773,-6.779l2.282,-3.266Zm12.998,9.055l9.773,6.829l-2.282,3.216l-9.773,-6.779l2.282,-3.266Zm12.997,9.055l9.773,6.829l-2.282,3.216l-9.723,-6.779l2.232,-3.266Zm13.048,9.105l9.773,6.779l-2.282,3.265l-9.773,-6.828l2.282,-3.216Zm12.997,9.055l9.773,6.779l-2.282,3.265l-9.773,-6.828l2.282,-3.216Zm13.047,9.055l9.724,6.779l-2.233,3.265l-9.773,-6.828l2.282,-3.216Zm12.998,9.055l9.773,6.779l-2.282,3.265l-9.773,-6.779l2.282,-3.265Zm12.997,9.055l9.773,6.779l-2.282,3.265l-9.723,-6.779l2.232,-3.265Zm13.048,9.055l9.772,6.828l-2.282,3.216l-9.772,-6.779l2.282,-3.265Zm12.997,9.055l9.773,6.828l-2.282,3.216l-9.723,-6.779l2.232,-3.265Zm13.047,9.104l9.773,6.779l-2.282,3.266l-9.773,-6.829l2.282,-3.216Zm12.998,9.055l7.243,5.047l-2.282,3.216l-7.243,-5.047l2.282,-3.216Zm0.942,-9.154l8.384,18.061l-19.893,-1.633c-1.091,-0.099 -1.885,-1.039 -1.786,-2.128c0.099,-1.088 1.042,-1.88 2.133,-1.831l16.47,1.336l-1.934,2.821l-6.946,-14.943c-0.496,-1.04 -0.049,-2.178 0.943,-2.672c0.992,-0.446 2.183,0 2.629,0.989Z" style="fill:#4472c4;fill-rule:nonzero;stroke:#4472c4;stroke-width:0.05px;stroke-linejoin:round;stroke-miterlimit:1.41421;"/><g transform="matrix(0.793743,0,0,0.791692,1235.24,545.285)"><path d="M26.295,-28.455l-4.962,0l0,20.304c-1.729,2.862 -4.052,4.914 -7.132,4.914c-3.08,0 -4.376,-1.458 -4.376,-5.346l0,-19.872l-4.962,0l0,20.412c0,5.561 2.966,8.688 7.933,8.688c4.053,0 6.7,-1.618 8.861,-5.07l0.377,4.422l4.261,0l0,-28.452Z" style="fill:#0070c0;fill-rule:nonzero;"/><path d="M43.852,-29.103c-5.888,0 -10.257,3.289 -10.257,7.825c0,3.997 2.427,6.644 8.582,8.264c5.511,1.459 6.916,2.539 6.916,5.348c0,2.701 -2.377,4.321 -6.106,4.321c-3.08,0 -5.724,-1.026 -7.989,-2.754l-2.645,3.024c2.483,2.156 5.934,3.72 10.742,3.72c5.782,0 11.23,-2.696 11.23,-8.635c0,-4.97 -3.452,-7.346 -9.446,-8.859c-4.593,-1.188 -6.106,-2.268 -6.106,-4.591c0,-2.269 1.999,-3.727 5.241,-3.727c2.648,0 4.863,0.81 7.398,2.43l2.104,-3.131c-2.697,-2.049 -5.665,-3.235 -9.664,-3.235Z" style="fill:#0070c0;fill-rule:nonzero;"/><path d="M82.619,-15.065c0,-8.697 -4.045,-14.038 -11.715,-14.038c-7.346,0 -11.823,6.313 -11.823,15.17c0,9.021 4.638,14.578 12.579,14.578c3.944,0 7.13,-1.348 9.934,-3.558l-2.157,-2.971c-2.482,1.729 -4.589,2.485 -7.399,2.485c-4.106,0 -7.185,-2.539 -7.671,-9.132l18.144,0c0.054,-0.647 0.108,-1.564 0.108,-2.534Zm-4.908,-1.132l-13.344,0c0.378,-6.322 2.863,-8.97 6.645,-8.97c4.484,0 6.699,3.08 6.699,8.646l0,0.324Z" style="fill:#0070c0;fill-rule:nonzero;"/><path d="M97.852,-29.103c-5.888,0 -10.257,3.289 -10.257,7.825c0,3.997 2.427,6.644 8.582,8.264c5.511,1.459 6.916,2.539 6.916,5.348c0,2.701 -2.377,4.321 -6.106,4.321c-3.08,0 -5.724,-1.026 -7.989,-2.754l-2.645,3.024c2.483,2.156 5.934,3.72 10.742,3.72c5.782,0 11.23,-2.696 11.23,-8.635c0,-4.97 -3.452,-7.346 -9.446,-8.859c-4.593,-1.188 -6.106,-2.268 -6.106,-4.591c0,-2.269 1.999,-3.727 5.241,-3.727c2.648,0 4.863,0.81 7.398,2.43l2.104,-3.131c-2.697,-2.049 -5.665,-3.235 -9.664,-3.235Z" style="fill:#0070c0;fill-rule:nonzero;"/></g><rect x="1376.35" y="281.842" width="292.097" height="178.131" style="fill:#fff;"/><path d="M1375.16,459.973l0,-19.001l2.382,0l0,19.001l-2.382,0Zm0,-26.126l0,-19.001l2.382,0l0,19.001l-2.382,0Zm0,-26.126l0,-19l2.382,0l0,19l-2.382,0Zm0,-26.126l0,-19l2.382,0l0,19l-2.382,0Zm0,-26.125l0,-19.001l2.382,0l0,19.001l-2.382,0Zm0,-26.126l0,-19.001l2.382,0l0,19.001l-2.382,0Zm0,-26.126l0,-19.001l2.382,0l0,19.001l-2.382,0Zm5.953,-22.563l19.05,0l0,2.375l-19.05,0l0,-2.375Zm26.194,0l19.05,0l0,2.375l-19.05,0l0,-2.375Zm26.193,0l19.05,0l0,2.375l-19.05,0l0,-2.375Zm26.194,0l19.05,0l0,2.375l-19.05,0l0,-2.375Zm26.193,0l19.05,0l0,2.375l-19.05,0l0,-2.375Zm26.194,0l19.05,0l0,2.375l-19.05,0l0,-2.375Zm26.193,0l19.05,0l0,2.375l-19.05,0l0,-2.375Zm26.194,0l19.05,0l0,2.375l-19.05,0l0,-2.375Zm26.193,0l19.05,0l0,2.375l-19.05,0l0,-2.375Zm26.194,0l19.05,0l0,2.375l-19.05,0l0,-2.375Zm26.193,0l19.05,0l0,2.375l-19.05,0l0,-2.375Zm26.591,1.979l0,19.001l-2.381,0l0,-19.001l2.381,0Zm0,26.126l0,19l-2.381,0l0,-19l2.381,0Zm0,26.126l0,19l-2.381,0l0,-19l2.381,0Zm0,26.125l0,19.001l-2.381,0l0,-19.001l2.381,0Zm0,26.126l0,19.001l-2.381,0l0,-19.001l2.381,0Zm0,26.126l0,19.001l-2.381,0l0,-19.001l2.381,0Zm0,26.126l0,19.001l-2.381,0l0,-19.001l2.381,0Zm-6.747,21.771l-19.05,0l0,-2.375l19.05,0l0,2.375Zm-26.193,0l-19.05,0l0,-2.375l19.05,0l0,2.375Zm-26.194,0l-19.05,0l0,-2.375l19.05,0l0,2.375Zm-26.193,0l-19.05,0l0,-2.375l19.05,0l0,2.375Zm-26.194,0l-19.05,0l0,-2.375l19.05,0l0,2.375Zm-26.194,0l-19.049,0l0,-2.375l19.049,0l0,2.375Zm-26.193,0l-19.05,0l0,-2.375l19.05,0l0,2.375Zm-26.194,0l-19.049,0l0,-2.375l19.049,0l0,2.375Zm-26.193,0l-19.05,0l0,-2.375l19.05,0l0,2.375Zm-26.194,0l-19.049,0l0,-2.375l19.049,0l0,2.375Zm-26.193,0l-19.05,0l0,-2.375l19.05,0l0,2.375Z" style="fill:#5b9bd5;fill-rule:nonzero;stroke:#5b9bd5;stroke-width:0.1px;stroke-linejoin:round;stroke-miterlimit:1.41421;"/><g transform="matrix(0.793743,0,0,0.791692,1468.1,355.483)"><path d="M36.5,-49.603l-35.416,0l0.001,5.823l14.112,0l0,43.776l6.831,0l0,-43.777l13.752,0.001l0.72,-5.823Z" style="fill:#0070c0;fill-rule:nonzero;"/><path d="M68.532,-20.086c0,-11.597 -5.393,-18.717 -15.62,-18.717c-9.795,-0.001 -15.763,8.417 -15.763,20.226c0,12.028 6.184,19.437 16.771,19.437c5.259,-0.001 9.507,-1.798 13.245,-4.745l-2.876,-3.961c-3.309,2.306 -6.118,3.314 -9.864,3.314c-5.475,0 -9.581,-3.386 -10.229,-12.177l24.192,0c0.072,-0.862 0.144,-2.084 0.144,-3.377Zm-6.543,-1.51l-17.793,0c0.504,-8.43 3.817,-11.961 8.86,-11.961c5.979,0 8.933,4.108 8.933,11.529l0,0.432Z" style="fill:#0070c0;fill-rule:nonzero;"/><path d="M89.176,-38.804c-7.851,0.001 -13.675,4.385 -13.675,10.433c0,5.33 3.235,8.859 11.441,11.02c7.349,1.944 9.223,3.385 9.223,7.13c0,3.601 -3.171,5.762 -8.142,5.762c-4.107,0 -7.633,-1.369 -10.653,-3.674l-3.525,4.033c3.309,2.875 7.911,4.96 14.322,4.96c7.709,0 14.973,-3.594 14.973,-11.513c0,-6.626 -4.603,-9.795 -12.595,-11.812c-6.124,-1.584 -8.141,-3.025 -8.141,-6.122c0,-3.025 2.665,-4.969 6.988,-4.969c3.53,0 6.484,1.08 9.865,3.241l2.804,-4.176c-3.595,-2.731 -7.554,-4.312 -12.885,-4.312Z" style="fill:#0070c0;fill-rule:nonzero;"/><path d="M129.508,-6.116c-1.872,1.008 -3.384,1.513 -5.04,1.513c-3.312,0 -4.536,-1.801 -4.536,-5.618l0,-22.616l8.28,0.001l0.72,-5.103l-9,0l0,-9.36l-6.615,0.791l0,8.569l-6.624,0l0,5.103l6.624,0l0,22.903c0,7.055 3.81,10.793 10.215,10.793c3.24,0 5.976,-0.863 8.496,-2.588l-2.52,-4.388Z" style="fill:#0070c0;fill-rule:nonzero;"/></g><g transform="matrix(0.793743,0,0,0.791692,1430.79,424.36)"><path d="M29.597,-53.996l-0.001,19.864c-2.521,-2.659 -5.762,-4.671 -10.229,-4.671c-9.29,0 -14.898,8.416 -14.898,20.011c0,11.812 5.105,19.652 14.322,19.652c4.682,0 8.5,-2.301 10.949,-6.112l0.647,5.248l5.825,0l0,-53.2l-6.615,-0.792Zm-9.365,49.609c-5.475,0 -8.644,-4.538 -8.644,-14.549c0,-9.867 3.529,-14.62 9.22,-14.62c3.746,0 6.411,1.944 8.789,4.969l0,18.582c-2.522,3.529 -5.115,5.618 -9.365,5.618Z" style="fill:#0070c0;fill-rule:nonzero;"/><path d="M64.096,-38.804c-10.803,0.001 -16.987,8.129 -16.987,19.868c0,12.028 6.112,19.796 16.915,19.796c10.731,0 16.916,-8.128 16.916,-19.868c0,-12.028 -6.041,-19.795 -16.844,-19.795Zm0,5.319c6.267,0 9.725,4.609 9.725,14.476c0,9.939 -3.458,14.549 -9.797,14.549c-6.339,0 -9.796,-4.61 -9.796,-14.477c0,-9.939 3.529,-14.548 9.868,-14.548Z" style="fill:#0070c0;fill-rule:nonzero;"/><path d="M120.059,-37.94l-6.615,0l0,27.072c-2.305,3.816 -5.403,6.552 -9.509,6.552c-4.106,0 -5.836,-1.944 -5.836,-7.128l0,-26.496l-6.615,0l0,27.216c0,7.415 3.955,11.583 10.578,11.583c5.403,0 8.933,-2.156 11.814,-6.759l0.503,5.896l5.68,0l0,-37.936Z" style="fill:#0070c0;fill-rule:nonzero;"/><path d="M151.193,-38.804c-4.61,0.001 -8.14,2.085 -10.733,5.608l0,-20.8l-6.615,0.792l0,53.2l5.824,0l0.647,-4.168c2.593,3.163 5.906,5.031 10.085,5.031c9.218,0 14.899,-7.983 14.899,-19.867c0,-12.676 -5.538,-19.796 -14.107,-19.796Zm-2.377,34.416c-3.386,0 -6.412,-2.088 -8.356,-5.113l0,-18.15c1.944,-3.025 4.682,-5.906 8.86,-5.906c5.331,0 8.861,3.746 8.861,14.549c0,10.371 -3.819,14.62 -9.365,14.62Z" style="fill:#0070c0;fill-rule:nonzero;"/><path d="M184.396,0.86c1.944,0 3.816,-0.504 5.256,-1.294l-1.728,-4.602c-0.72,0.289 -1.512,0.433 -2.448,0.433c-1.728,0 -2.376,-1.008 -2.376,-3.024l0,-46.369l-6.615,0.792l0,45.721c0,5.395 3.091,8.342 7.911,8.342Z" style="fill:#0070c0;fill-rule:nonzero;"/><path d="M226.132,-20.086c0,-11.597 -5.393,-18.717 -15.62,-18.717c-9.795,-0.001 -15.763,8.417 -15.763,20.226c0,12.028 6.184,19.437 16.771,19.437c5.259,-0.001 9.507,-1.798 13.245,-4.745l-2.876,-3.961c-3.309,2.306 -6.118,3.314 -9.864,3.314c-5.475,0 -9.581,-3.386 -10.229,-12.177l24.192,0c0.072,-0.862 0.144,-2.084 0.144,-3.377Zm-6.543,-1.51l-17.793,0c0.504,-8.43 3.817,-11.961 8.86,-11.961c5.979,0 8.933,4.108 8.933,11.529l0,0.432Z" style="fill:#0070c0;fill-rule:nonzero;"/></g><path d="M792.949,88.274l123.377,0l0,2.375l-123.377,0l0,-2.375Zm109.685,-8.115l16.074,9.302l-16.074,9.352c-0.545,0.346 -1.29,0.148 -1.637,-0.396c-0.297,-0.594 -0.149,-1.336 0.447,-1.633l14.287,-8.312l0,2.028l-14.287,-8.313c-0.596,-0.296 -0.744,-1.039 -0.447,-1.632c0.347,-0.545 1.092,-0.743 1.637,-0.396Z" style="fill:#4472c4;fill-rule:nonzero;stroke:#4472c4;stroke-width:0.05px;stroke-linejoin:round;stroke-miterlimit:1.41421;"/><path d="M1250.94,369.324l123.377,0l0,2.375l-123.377,0l0,-2.375Zm109.685,-8.115l16.073,9.303l-16.073,9.352c-0.546,0.346 -1.29,0.148 -1.637,-0.396c-0.298,-0.594 -0.149,-1.336 0.446,-1.633l14.288,-8.313l0,2.029l-14.288,-8.313c-0.595,-0.297 -0.744,-1.039 -0.446,-1.633c0.347,-0.544 1.091,-0.742 1.637,-0.396Z" style="fill:#4472c4;fill-rule:nonzero;stroke:#4472c4;stroke-width:0.05px;stroke-linejoin:round;stroke-miterlimit:1.41421;"/></g></svg>